# AST/ASF file generated using VICON BodyLanguage
# -----------------------------------------------
:version 1.10
:name VICON
:units
  mass 1.0
  length 0.45
  angle deg
:documentation
   .ast/.asf automatically generated from VICON data using
   VICON BodyBuilder and BodyLanguage model FoxedUp or BRILLIANT.MOD
:root
   order TX TY TZ RX RY RZ
   axis XYZ
   position 0 0 0  
   orientation 0 0 0 
:bonedata
  begin
     id 1 
     name lhipjoint
     direction 0.575328 -0.747301 0.332475 
     length 2.40933 
     axis 0 0 0  XYZ
  end
  begin
     id 2 
     name lfemur
     direction 0.34202 -0.939693 0  
     length 7.31453  
     axis 0 0 20  XYZ
    dof rx ry rz
    limits (-160.0 20.0)
           (-70.0 70.0)
           (-60.0 70.0)
  end
  begin
     id 3 
     name ltibia
     direction 0.34202 -0.939693 0   
     length 7.82185   
     axis 0 0 20   XYZ
    dof rx
    limits (-10.0 170.0)
  end
  begin
     id 4 
     name lfoot
     direction 0.0795993 -0.218697 0.972541   
     length 2.19173   
     axis -90 7.62852e-016 20   XYZ
    dof rx rz
    limits (-45.0 90.0)
           (-70.0 20.0)
  end
  begin
     id 5 
     name ltoes
     direction 1.53537e-011 -4.21894e-011 1   
     length 1.10023   
     axis -90 7.62852e-016 20   XYZ
    dof rx
    limits (-90.0 20.0)
  end
  begin
     id 6 
     name rhipjoint
     direction -0.513884 -0.783789 0.348708   
     length 2.29716  
     axis 0 0 0  XYZ 
  end
  begin
     id 7 
     name rfemur
     direction -0.34202 -0.939693 0   
     length 7.59573   
     axis 0 0 -20   XYZ
    dof rx ry rz
    limits (-160.0 20.0)
           (-70.0 70.0)
           (-70.0 60.0)
  end
  begin
     id 8 
     name rtibia
     direction -0.34202 -0.939693 0   
     length 7.66402   
     axis 0 0 -20   XYZ
    dof rx
    limits (-10.0 170.0)
 end
 begin
     id 9 
     name rfoot
     direction -0.137793 -0.378584 0.915253   
     length 2.27056  
     axis -90 -7.62852e-016 -20   XYZ
    dof rx rz
    limits (-45.0 90.0)
           (-20.0 70.0)
  end
  begin
     id 10 
     name rtoes
     direction -1.53493e-011 -4.22159e-011 1   
     length 1.11766   
     axis -90 -7.62852e-016 -20   XYZ
    dof rx
    limits (-90.0 20.0)
  end
  begin
     id 11 
     name lowerback
     direction -0.00732775 0.998356 -0.05685   
     length 2.16513   
     axis 0 0 0   XYZ
    dof rx ry rz
    limits (-20.0 45.0)
           (-30.0 30.0)
           (-30.0 30.0)
  end
  begin
     id 12 
     name upperback
     direction 0.0218081 0.999627 -0.0164647   
     length 2.16755   
     axis 0 0 0   XYZ
    dof rx ry rz
    limits (-20.0 45.0)
           (-30.0 30.0)
           (-30.0 30.0)
  end
  begin
     id 13 
     name thorax
     direction 0.02365 0.999661 0.0108914   
     length 2.16932   
     axis 0 0 0   XYZ
    dof rx ry rz
    limits (-20.0 45.0)
           (-30.0 30.0)
           (-30.0 30.0)
  end
  begin
     id 14 
     name lowerneck
     direction -0.0523929 0.978385 0.200044   
     length 1.63877   
     axis 0 0 0   XYZ
    dof rx ry rz
    limits (-20.0 45.0)
           (-30.0 30.0)
           (-30.0 30.0)
  end
  begin
     id 15 
     name upperneck
     direction 0.0448674 0.981321 -0.187074   
     length 1.69014   
     axis 0 0 0   XYZ
    dof rx ry rz
    limits (-20.0 45.0)
           (-30.0 30.0)
           (-30.0 30.0)
  end
  begin
     id 16
     name head
     direction 0.0199089 0.996118 -0.0857429  
     length 1.70094  
     axis 0 0 0   XYZ
    dof rx ry rz
    limits (-20.0 45.0)
           (-30.0 30.0)
           (-30.0 30.0)
  end
  begin
     id 17 
     name lclavicle
     direction 0.940366 0.30191 -0.156722  
     length 3.37521  
     axis 0 0 0   XYZ
    dof ry rz
    limits (-20.0 10.0)
           (0.0 20.0)
  end
  begin
     id 18 
     name lhumerus
     direction 1 -4.4897e-011 -1.7911e-027   
     length 5.25287   
     axis 180 -30 -90   XYZ
    dof rx ry rz
    limits (-60.0 90.0)
           (-90.0 90.0)
           (-90.0 90.0)
  end
  begin
     id 19
     name lradius
     direction 1 -4.48951e-011 1.04424e-027   
     length 3.51014   
     axis 180 -30 -90   XYZ
    dof rx
    limits (-10.0 170.0)
  end
  begin
     id 20
     name lwrist
     direction 1 -4.48997e-011 -9.5942e-028   
     length 1.75507   
     axis 8.48502e-016 90 90   XYZ
    dof ry
    limits (-180.0 0.0)
 end
  begin
     id 21 
     name lhand
     direction 1 -4.48831e-011 -1.90777e-027   
     length 0.706179   
     axis 1.22306e-015 90 90   XYZ
    dof rx rz
    limits (-90.0 90.0)
           (-45.0 45.0)
  end
  begin
     id 22 
     name lfingers
     direction 1 -4.49108e-011 -3.85244e-027   
     length 0.569339   
     axis 2.44611e-015 90 90   XYZ
    dof rx
    limits (0.0 90.0)
  end
  begin
     id 23
     name lthumb
     direction 0.707107 -6.34953e-011 0.707107   
     length 0.817461   
     axis -90 45 -1.62303e-014   XYZ
    dof rx rz
    limits (-45.0 45.0)
           (-45.0 45.0)
  end
  begin
     id 24 
     name rclavicle
     direction -0.905329 0.382405 -0.184787   
     length 3.30787  
     axis 0 0 0   XYZ 
    dof ry rz
    limits (-10.0 20.0)
           (-20.0 0.0)
  end
  begin
     id 25 
     name rhumerus
     direction -1 -4.48953e-011 -9.15316e-029  
     length 5.28721   
     axis 180 30 90   XYZ
    dof rx ry rz
    limits (-90.0 60.0)
           (-90.0 90.0)
           (-90.0 90.0)
  end
  begin
     id 26 
     name rradius
     direction -1 -4.48987e-011 9.37824e-028   
     length 3.50544   
     axis 180 30 90   XYZ
    dof rx
    limits (-10.0 170.0)
  end
  begin
     id 27 
     name rwrist
     direction -1 -4.48967e-011 -9.58414e-028   
     length 1.75272   
     axis 8.48502e-016 -90 -90   XYZ
    dof ry
    limits (-180.0 0.0)
  end
  begin
     id 28
     name rhand
     direction -1 -4.48904e-011 -1.91266e-027   
     length 0.884996   
     axis 1.22306e-015 -90 -90   XYZ
    dof rx rz
    limits (-90.0 90.0)
           (-45.0 45.0)
  end
  begin
     id 29
     name rfingers
     direction -1 -4.4909e-011 -3.85015e-027   
     length 0.713507   
     axis 2.44611e-015 -90 -90   XYZ
    dof rx
    limits (0.0 90.0)
  end
  begin
     id 30
     name rthumb
     direction -0.707107 -6.34853e-011 0.707107   
     length 1.02446   
     axis -90 -45 1.62303e-014   XYZ
    dof rx rz
    limits (-45.0 45.0)
           (-45.0 45.0)
  end
:hierarchy
  begin
    root lhipjoint rhipjoint lowerback
    lhipjoint lfemur
    lfemur ltibia
    ltibia lfoot
    lfoot ltoes
    rhipjoint rfemur
    rfemur rtibia
    rtibia rfoot
    rfoot rtoes
    lowerback upperback
    upperback thorax
    thorax lowerneck lclavicle rclavicle
    lowerneck upperneck
    upperneck head
    lclavicle lhumerus
    lhumerus lradius
    lradius lwrist
    lwrist lhand lthumb
    lhand lfingers
    rclavicle rhumerus
    rhumerus rradius
    rradius rwrist
    rwrist rhand rthumb
    rhand rfingers
  end

#!OML:ASF F:\twosubjects\two\Thursday\Session 1\justin.ASF
:FULLY-SPECIFIED
:DEGREES
51
root 13.2026 17.9394 -1.92456 4.60626 -41.1253 2.90626
lowerback -0.934491 1.1106 -3.51097
upperback 1.075 1.50694 2.16033
thorax 1.4807 0.69995 4.22841
lowerneck -19.1891 -5.26324 -10.1875
upperneck 25.8088 -6.05534 5.85816
head 12.212 -3.00675 2.92801
rclavicle -5.66536e-014 8.74653e-015
rhumerus -31.2844 -26.8625 -67.2474
rradius 29.8629
rwrist 1.13489
rhand -12.9463 10.985
rfingers 7.12502
rthumb 13.145 -18.5807
lclavicle -5.66536e-014 8.74653e-015
lhumerus -33.5946 15.6935 77.9406
lradius 29.5483
lwrist -6.59598
lhand -5.1506 36.9939
lfingers 7.12502
lthumb 20.6487 65.9155
rfemur -17.125 -4.72643 17.3082
rtibia 37.0406
rfoot -24.3323 -17.1491
rtoes -11.7247
lfemur -11.3018 1.89773 -16.594
ltibia 23.5071
lfoot -14.9127 4.83514
ltoes -11.166
52
root 13.1955 17.9384 -1.92522 4.52596 -41.0489 3.04253
lowerback -0.925308 1.10644 -3.63959
upperback 1.11596 1.50374 2.14389
thorax 1.51543 0.695445 4.28457
lowerneck -19.1446 -5.37212 -10.6985
upperneck 25.7647 -6.18173 6.3092
head 12.2348 -3.05603 3.16489
rclavicle 3.37934e-015 3.18055e-015
rhumerus -31.1067 -27.3405 -67.2734
rradius 29.7256
rwrist 1.50965
rhand -12.8274 10.7708
rfingers 7.12502
rthumb 13.2595 -18.7874
lclavicle 3.37934e-015 3.18055e-015
lhumerus -33.6495 16.0656 77.9667
lradius 29.6993
lwrist -7.10748
lhand -5.27895 36.85
lfingers 7.12502
lthumb 20.5254 65.785
rfemur -17.1399 -4.80137 17.2209
rtibia 37.0655
rfoot -24.2239 -17.2964
rtoes -11.9156
lfemur -11.275 2.00116 -16.6542
ltibia 23.4598
lfoot -15.0513 4.44218
ltoes -14.883
53
root 13.1877 17.9497 -1.93225 4.70337 -41.0118 2.97427
lowerback -0.837433 1.12325 -3.71562
upperback 0.983718 1.52347 2.2215
thorax 1.32404 0.711238 4.4043
lowerneck -19 -5.41967 -11.1058
upperneck 25.8266 -6.21681 6.56702
head 12.2598 -3.08344 3.32926
rclavicle -1.10027e-013 1.59028e-015
rhumerus -31.3603 -27.3771 -67.112
rradius 29.8303
rwrist 1.88351
rhand -12.4632 10.9027
rfingers 7.12502
rthumb 13.6106 -18.6324
lclavicle -1.10027e-013 1.59028e-015
lhumerus -33.976 16.1155 78.0645
lradius 30.0191
lwrist -7.20305
lhand -6.18409 36.8838
lfingers 7.12502
lthumb 19.6554 65.9102
rfemur -17.214 -4.71472 17.3315
rtibia 37.0196
rfoot -24.3222 -17.2358
rtoes -10.8186
lfemur -11.4686 1.93167 -16.4686
ltibia 23.532
lfoot -15.257 3.82778
ltoes -10.8096
54
root 13.1839 17.9612 -1.93481 4.90517 -40.9984 2.83646
lowerback -0.775147 1.14309 -3.64945
upperback 0.911134 1.5462 2.27333
thorax 1.21222 0.727055 4.41827
lowerneck -19.0231 -5.39494 -10.8099
upperneck 25.8274 -6.14025 6.12156
head 12.2295 -3.07594 3.12089
rclavicle 1.21159e-013 -3.18055e-015
rhumerus -31.4636 -27.0103 -67.2293
rradius 30.0814
rwrist 1.76471
rhand -12.437 10.7261
rfingers 7.12502
rthumb 13.6359 -18.8072
lclavicle 1.21159e-013 -3.18055e-015
lhumerus -34.1459 16.0799 78.1588
lradius 30.3617
lwrist -6.73491
lhand -6.79313 37.2795
lfingers 7.12502
lthumb 19.0698 66.3647
rfemur -17.2574 -4.57006 17.4669
rtibia 36.9514
rfoot -24.4784 -17.1419
rtoes -9.92624
lfemur -11.5863 1.66427 -16.2566
ltibia 23.6361
lfoot -15.4991 3.50701
ltoes -6.23586
55
root 13.1835 17.958 -1.93111 4.89864 -40.8725 2.80328
lowerback -0.651109 1.07854 -3.59306
upperback 0.933865 1.4559 2.24372
thorax 1.17734 0.682848 4.35184
lowerneck -19.0894 -5.31161 -10.3846
upperneck 25.7131 -6.0304 5.74423
head 12.1567 -3.0298 2.92141
rclavicle 6.69904e-014 -6.36111e-015
rhumerus -31.2617 -26.4591 -67.7514
rradius 30.2737
rwrist 1.13744
rhand -12.8632 10.615
rfingers 7.12502
rthumb 13.2251 -18.9455
lclavicle 6.69904e-014 -6.36111e-015
lhumerus -34.2443 16.2265 78.1199
lradius 30.6172
lwrist -6.52046
lhand -6.72409 37.4847
lfingers 7.12502
lthumb 19.1362 66.5633
rfemur -17.2165 -4.62234 17.4996
rtibia 36.9037
rfoot -24.3473 -17.3613
rtoes -10.9742
lfemur -11.5294 1.65423 -16.2498
ltibia 23.6756
lfoot -15.6179 3.6275
ltoes -7.29615
56
root 13.182 17.9487 -1.92966 4.89283 -40.6615 2.82471
lowerback -0.662181 0.916486 -3.62516
upperback 1.0142 1.24104 2.19329
thorax 1.28859 0.57105 4.31639
lowerneck -19.127 -5.22262 -10.3105
upperneck 25.5182 -5.95387 5.89051
head 12.0817 -2.96618 2.97497
rclavicle -4.52235e-014 1.51076e-014
rhumerus -30.9272 -25.858 -68.331
rradius 30.4492
rwrist 0.72037
rhand -13.2637 10.8154
rfingers 7.12502
rthumb 12.839 -18.7697
lclavicle -4.52235e-014 1.51076e-014
lhumerus -34.2121 16.3651 78.0494
lradius 30.6803
lwrist -6.58938
lhand -5.88264 37.3164
lfingers 7.12502
lthumb 19.9452 66.3128
rfemur -17.2138 -4.71917 17.502
rtibia 36.8638
rfoot -24.2294 -17.5712
rtoes -11.5525
lfemur -11.652 1.7994 -16.3147
ltibia 23.7104
lfoot -15.4848 3.83807
ltoes -26.5645
57
root 13.1776 17.9476 -1.9303 4.84726 -40.5379 2.93258
lowerback -0.713584 0.796854 -3.75364
upperback 1.08507 1.0854 2.15931
thorax 1.40475 0.487865 4.3536
lowerneck -19.1159 -5.17492 -10.375
upperneck 25.3681 -5.91 6.07137
head 12.0246 -2.92804 3.06031
rclavicle -4.08502e-014 2.38542e-014
rhumerus -30.7651 -25.5255 -68.6264
rradius 30.6285
rwrist 0.583538
rhand -13.3473 10.9178
rfingers 7.12502
rthumb 12.7584 -18.6723
lclavicle -4.08502e-014 2.38542e-014
lhumerus -34.117 16.2816 78.1232
lradius 30.6115
lwrist -6.55419
lhand -4.89567 37.1947
lfingers 7.12502
lthumb 20.8937 66.0896
rfemur -17.1989 -4.69531 17.4193
rtibia 36.8337
rfoot -24.3358 -17.5146
rtoes -10.6317
lfemur -11.8208 1.65052 -16.3815
ltibia 23.7646
lfoot -15.378 3.80787
ltoes -27.5789
58
root 13.1751 17.9514 -1.93363 4.91109 -40.4797 2.84875
lowerback -0.54546 0.754218 -3.78131
upperback 1.00623 1.02232 2.2337
thorax 1.23393 0.461204 4.44192
lowerneck -19.0378 -5.13289 -10.4575
upperneck 25.4056 -5.84015 6.08846
head 12.0205 -2.9052 3.09397
rclavicle 9.54166e-015 -2.78299e-014
rhumerus -30.8849 -25.2042 -68.6658
rradius 30.8153
rwrist 0.546896
rhand -13.0136 10.8214
rfingers 7.12502
rthumb 13.0801 -18.7484
lclavicle 9.54166e-015 -2.78299e-014
lhumerus -34.3288 16.4082 78.184
lradius 30.7009
lwrist -6.56142
lhand -4.31095 37.1975
lfingers 7.12502
lthumb 21.4553 66.0294
rfemur -17.1938 -4.66085 17.5126
rtibia 36.8184
rfoot -24.3325 -17.5485
rtoes -9.98823
lfemur -11.8464 1.51387 -16.2529
ltibia 23.8
lfoot -15.436 3.53232
ltoes -30.263
59
root 13.1756 17.9482 -1.93748 5.09771 -40.386 2.58269
lowerback -0.291568 0.758423 -3.68033
upperback 0.866993 1.0174 2.35259
thorax 0.948084 0.468566 4.50246
lowerneck -18.8837 -5.11738 -10.5602
upperneck 25.4059 -5.79825 6.07053
head 11.9892 -2.90211 3.11323
rclavicle -2.20651e-014 -1.43125e-014
rhumerus -31.1461 -24.6931 -68.6265
rradius 31.1239
rwrist 0.536681
rhand -12.5636 10.7753
rfingers 7.12502
rthumb 13.5138 -18.7662
lclavicle -2.20651e-014 -1.43125e-014
lhumerus -34.6906 16.7789 78.16
lradius 30.9549
lwrist -6.89503
lhand -4.13942 37.2781
lfingers 7.12502
lthumb 21.6201 66.0912
rfemur -17.2034 -4.61664 17.7685
rtibia 36.8046
rfoot -24.2705 -17.7117
rtoes -9.89603
lfemur -11.8315 1.75546 -16.0416
ltibia 23.8638
lfoot -15.5113 3.53959
ltoes -23.6259
